<?xml version="1.0" encoding="UTF-8"?><svg id="Capa_2" xmlns="http://www.w3.org/2000/svg" viewBox="0 0 205.94 209.59"><g id="Capa_1-2"><path d="M43.13,105.9c-2.03.6-3.59,2.02-5.34,3.09-6.26,3.83-12.89,6.78-19.95,8.77-.81.23-1.61.34-2.41.22-2.29-.32-3.35-2-2.48-4.12,1.78-4.34,4.48-8.14,7.31-11.85,3.1-4.06,6.37-7.99,10.12-11.5.37-.34.79-.69.76-1.39-4.2.82-8.35,1.85-12.56,2.38-3.94.5-7.97.78-11.86-.63-2.39-.86-2.89-2.24-1.49-4.41,2.14-3.31,5.4-5.43,8.41-7.8,5.12-4.03,10.77-7.2,16.59-10.43-3.16-.33-6.33-.58-9.49-1-5.33-.71-10.65-1.55-15.68-3.57-1.22-.49-2.44-1.06-3.51-1.82-2.13-1.51-2.03-3.33.05-5.06,3.46-2.88,7.72-3.91,11.88-5.12,5.68-1.65,11.55-2.32,17.38-3.23.27-.04.53-.12.84-.6-1.95-.65-3.9-1.31-5.85-1.95-5.69-1.85-11.24-4-16.31-7.24-.56-.36-1.11-.75-1.61-1.18-2.82-2.47-2.45-5.08,1.08-6.28,4.2-1.44,8.61-2,13.04-2.24,6.69-.36,13.31.16,19.85,1.68.5.12,1.03.08,1.76.12-1.06-1.51-2.31-2.58-3.64-3.58-4.41-3.31-8.31-7.14-11.6-11.58-.53-.71-1.02-1.45-1.46-2.22-.8-1.42-1.22-2.93-.17-4.38,1.04-1.44,2.58-1.58,4.21-1.29,5.69,1.02,11.09,2.96,16.31,5.38,2.75,1.27,5.44,2.67,8.55,4.21-1.41-2.99-2.71-5.72-3.38-8.69-.39-1.73-.79-3.44.65-4.74,1.59-1.44,3.44-.95,5.18-.15,5.33,2.46,10.14,5.73,14.69,9.41.91.74,1.89,1.4,3.04,1.97-1.22-3.14-2.41-6.24-3.42-9.41-.58-1.8-.54-3.36.75-4.72,1.35-1.42,2.87-1.04,4.49-.37,3.84,1.59,6.88,4.3,10,6.9,8.97,7.48,16.3,16.33,21.86,26.6.55,1.02,1.05,1.21,2.02,1.02,7.37-1.49,14.73-2.96,22.1-4.45,1.19-.24,2.15-.81,2.97-1.77,5.48-6.44,12.7-9.43,20.92-10.16,3.31-.3,6.65-.26,9.94.6,7.37,1.91,11.42,6.92,13.26,14.01,1.33,5.14,1.66,10.35.82,15.62-.46,2.9-2.53,4.65-4.64,3.4-5.42-3.21-10.97-2.24-16.58-.99-8.05,1.8-13.95,6.81-19.13,12.87-2.22,2.59-4.41,5.2-6.61,7.8-.32.38-.85.71-.62,1.32.25.65.89.35,1.35.47,4.2,1.1,7.91-.04,11.64-2.07,8.76-4.75,18.25-6.54,28.18-6.35,5.34.1,10.63-.21,15.57-2.72,3.15-1.6,5.58-3.85,7.24-6.93.57-1.06,1.13-2.07,2.19-2.73,2.19-1.36,4.35-.61,5,1.9,1.71,6.63-.51,12.19-4.87,17.11-.53.6-1.16,1.11-1.68,1.61,2.86,2.99,5.08,6.21,5.22,10.47.05,1.65-.38,3.09-1.95,3.94-1.66.89-3.13.5-4.5-.65-4.5-3.77-9.53-6.35-15.37-7.4-6.07-1.09-12.07-.7-18.09.29-.18.03-.33.28-.67.58,2.52,1.18,5.22,1.16,7.72,1.9,1.48.44,3.04.6,4.56.93,2.54.54,3.3,2.2,1.82,4.33-1.53,2.2-3.56,4.02-5.86,5.37-6.13,3.6-12.79,4.49-19.83,3.92-5.96-.49-11.93-1.55-17.94-.71-4.15.58-7.81,2.47-11.35,4.6-1.64.99-3.13,2.22-4.79,3.19-5.78,3.39-6.09,8.72-5.34,13.88.46,3.12,1.8,5.91,3.9,8.29.98,1.11.9,2.25.41,3.49-.5,1.27-1.5,1.67-2.79,1.78-3.47.31-6.57-.6-9.39-2.61-.53-.38-1.13-.66-1.95-1.14.2,1.56.74,2.7,1.37,3.8.51.9,1.11,1.76,1.54,2.69,1.31,2.87.32,4.23-2.82,4.46-5.37.39-8.83-2.74-12.12-6.27-.4-.43-.76-.91-1.16-1.34-.08-.09-.27-.07-.59-.15-1.46,7.21-.11,14,2.77,20.6,4.23,9.7,12.08,15.14,21.66,18.71,9.49,3.53,19.29,4.43,29.24,3.43,7.3-.73,14.38-2.36,20.13-7.53,5.82-5.24,8.45-16.04,5.51-23.28-1.52-3.75-4.18-6.25-8.29-6.35-4.29-.1-8.2,1.09-10.6,5.17-2.03,3.45-2.89,7.2-3.13,11.14-.13,2.07-.23,4.14-.46,6.2-.27,2.48-2.12,4.35-4.89,5.09-4.24,1.14-8.94-1.38-9.94-5.56-.58-2.43-1-4.95-.53-7.49.17-.9.35-1.87-.72-2.23-1.24-.41-1.65.62-2.03,1.53-.2.48-.35.97-.52,1.45-.31.85-.67,1.86-1.72,1.72-1.09-.15-1.84-1.03-1.9-2.18-.09-1.68-.97-2.55-2.42-3.34-2.2-1.19-3.39-3.15-3.44-5.8-.19-9.31,3.83-16.9,9.85-23.51,8.55-9.37,19.42-13.55,32.02-13.66,7.34-.06,14.44.87,21,4.33,10.34,5.46,16.41,14.29,19.59,25.31,1.27,4.38,1.61,8.88,1.85,13.44.42,7.97-.27,15.77-2.84,23.32-4.31,12.67-12.74,21.94-24.29,28.43-10.63,5.98-22.2,8.45-34.3,9.13-12.4.69-24.52-.7-36.45-4.04-9.81-2.75-18.65-7.35-26.6-13.72-4.48-3.59-8.37-7.73-11.47-12.56-.55-.86-.82-1.13-1.78-.35-8.66,7.09-16.51,14.86-21.53,25.06-.8,1.63-1.74,2.96-3.77,2.87-2.1-.08-3.41-1.35-4.2-3.13-1.73-3.91-2.09-7.97-1.02-12.14.43-1.69.88-3.37,1.41-5.39-2.87,2.15-5.65,3.88-8.49,5.53-1.51.88-2.97,1.78-4.67.56-1.65-1.19-1.53-2.91-1.21-4.63.93-4.98,3.35-9.24,6.48-13.14.46-.57.9-1.16,1.46-1.89-1.56-.2-2.43.83-3.51,1.3-1.98.86-4.01,2.54-6.16.75-2.09-1.73-1.18-4.11-.59-6.19,1.22-4.31,4.23-7.52,7.37-11.13-1.45.44-2.49.82-3.57,1.07-4.37,1-7.18-1.02-6.91-5.48.63-10.36,6.05-17.14,16.99-17.87,7.67-.51,14.31,2.11,20.87,6.39-.75-7.83-.48-15.3.44-23.22-3.07,2.46-5.78,4.58-8.88,6.11-1.83.9-3.76,2.24-5.77.71-2.13-1.62-1.24-3.78-.7-5.88,1.16-4.53,2.83-8.83,5.34-12.79.02-.18.03-.36.05-.54-.15.08-.3.15-.45.23ZM19.75,111.93c.93-.24,1.88-.42,2.78-.73,4.01-1.4,7.68-3.53,11.23-5.78,11.27-7.11,22.32-14.58,34.16-20.75,3.21-1.67,3.09-1.84,2.32-5.53-.27-1.3-.66-1.76-2.21-1.47-13.05,2.37-24.78,7.45-34.57,16.56-5.51,5.13-10.1,11.02-13.91,17.52-.04.09-.08.18-.13.27l.31-.09ZM112.45,78.24c-3.98.19-8.01.79-11.82-.92-1.24-.56-1.44-.3-1.88.95-2.6,7.47-8.03,13.06-16.58,12.99-2.28-.02-1.69,1.19-.91,2.16,2.77,3.44,6.01,6.51,10.2,7.95,9.11,3.14,17.8,2.39,26.05-3.14,8.72-5.85,18.26-8.28,28.89-6.37,4.38.79,8.97,1.12,13.5.47,4.23-.05,7.69-1.96,11.31-4.41-5.88-1.61-11.27-3.41-16.6-5.41-3.18-1.19-6.29-2.7-9.67-3.22-6.52-.99-13.14-.81-19.7-1.29-.8-.06-1.91.49-2.27-.75-.31-1.08.41-1.81,1.14-2.47.38-.35.74-.73,1.16-1.04,4.24-3.14,7.74-7.02,11.05-11.09,5-6.16,10.5-11.67,18.16-14.54,6.98-2.62,13.97-4.57,21.3-1.35,1.41.62,1.48-.24,1.5-1.22.13-4.54-.43-8.98-1.57-13.4-1.32-5.12-5.22-7.56-9.65-8.33-4.73-.81-9.71-.64-14.5.93-4.33,1.42-8.18,3.35-10.86,7.19-.63.9-1.34,2.14-2.23,2.37-3.19.82-3.13,3.11-2.98,5.57.09,1.4.08,2.82.25,4.21,1.12,8.89-1.03,11.81-9.82,13.56-1.42.28-3.42-.5-4.15.76-.72,1.24.44,2.96.54,4.51.46,6.97-.89,10.77-6.18,13.83-1.13.66-2.44,1.01-3.67,1.5ZM179.43,150.15s0,.03,0,.05c.74,0,1.48,0,2.23,0,3.01,0,3.1-.02,2.82-3.03-.77-8.12-4.05-14.92-10.75-19.87-5.17-3.82-10.93-4.02-16.98-3.1-7.4,1.13-13.61,4.18-17.58,10.75-3.73,6.17-4.77,13-4.17,20.11.15,1.73,1.15,3.01,2.48,4.06,1.56,1.24,2.8.88,3.2-1.1.25-1.22.25-2.52.19-3.77-.23-4.69,1.07-8.99,3.03-13.18,4.4-9.41,17.77-10.9,23.23-6.59,3.71,2.94,5.65,6.7,6.71,11.17.35,1.5-.44,3.65.79,4.35,1.24.7,3.18.15,4.81.15ZM7.54,58.75c.01.19.03.37.04.56,4.04,1.01,8.05,2.2,12.13,3,7.88,1.54,15.89,1.71,23.89,1.76,5.04.03,10.09,0,15.13,0,2.74,0,5.49-.09,8.21.16,1.41.13,2.83.88,3.43-1.06,1.03-3.3.83-3.94-1.65-4.93-5-2-10.26-3.13-15.44-4.54-4.76-1.29-9.45-1.53-14.23-1.47-8.34.12-16.44,1.87-24.43,4.19-2.38.69-4.72,1.55-7.08,2.33ZM74.5,70.35c0,1.11-.13,2.24.03,3.33.27,1.93,1.87,3.29,3.73,2.84,2.49-.59,4.99-1.4,5.98-4.28.51-1.47,1.03-2.92,1.28-4.46,1.51-9.26,6.64-15.34,15.78-17.82,5.13-1.39,10.32-2.59,15.41-4.09,4.35-1.29,3.47-.79,3.52-4.79.03-2.36-.44-2.71-2.77-2.28-7.55,1.4-15.06,2.99-22.38,5.3-6.72,2.12-13.05,4.94-16.65,11.66-2.45,4.58-3.97,9.36-3.94,14.58ZM12.2,34.91c.85.57,1.13.81,1.45.97,6.34,3.08,13,5.32,19.73,7.31,12.27,3.63,24.71,6.72,36.74,11.13,3.27,1.2,3.22,1.14,5.26-1.88.75-1.1.81-1.7-.42-2.42-12.43-7.31-25.09-13.84-39.76-15.61-7.55-.91-14.94-.66-23,.51ZM57.12,68.6c-5.58-.23-10.77.45-15.89,1.59-10.68,2.37-19.62,8.06-27.95,14.86-.33.27-.81.52-.64,1.06.18.58.7.68,1.25.71,2.68.11,5.33-.24,7.94-.69,7.15-1.23,14.1-3.3,21.07-5.27,8.4-2.37,16.37-6.11,25.01-7.66,1.58-.28,2.08-1.06,2.12-2.52.05-1.81-1.39-1.58-2.33-1.59-3.64-.04-7.24-.81-10.58-.49ZM33.53,13.45c.49,2.07,2.16,3.28,3.53,4.65,6.32,6.37,12.74,12.66,20.55,17.22,6.51,3.81,13.35,7.06,19.67,11.2.37.24.79.41,1.21.54,1.73.54,2.83-.8,3.85-1.67.98-.83-.34-1.7-.87-2.35-1.86-2.3-3.6-4.7-5.9-6.63-5.05-4.25-10.31-8.23-15.91-11.71-6.85-4.27-14.06-7.89-21.83-10.25-1.37-.42-2.95-.07-4.32-1ZM136.72,184.21c0-1.48-.07-2.45.02-3.4.12-1.37-.47-1.75-1.79-1.78-6.73-.16-13.41-.73-19.82-3.04-1.02-.37-1.81-.23-2.32.94-1.07,2.43-2.08,4.91-3.42,7.19-1.08,1.84-.11,2.3,1.28,2.7,7.74,2.21,15.63,3.49,23.68,3.84,1.43.06,1.92-.47,2.05-1.88.15-1.69.36-3.38.33-4.56ZM43.4,119.37c1.73-.7,3.09-1.58,4.32-2.63,3.94-3.36,7.94-6.65,11.46-10.49,1.54-1.68,2.72-3.8,4.72-4.94,4.14-2.36,7.09-6.01,10.4-9.26,1.35-1.33-.27-2.57-.71-3.78-.46-1.26-1.36-.38-2.03-.12-5.7,2.2-10.87,5.36-15.88,8.8-.72.5-1.39,1.13-1.93,1.82-4.08,5.22-7.2,11-9.77,17.09-.42,1-.79,2.07-.57,3.51ZM77.43,141.04s0,.05,0,.08c-1.63,0-3.26.06-4.89-.02-1.37-.06-1.76.35-1.57,1.8,1.03,8.16,4.39,15.34,9.01,22.02.48.7.72,1.04,1.67.46,2.46-1.49,5.02-2.83,7.59-4.13,1.4-.71,1.34-1.49.55-2.61-2.68-3.8-4.11-8.16-5.55-12.51-.55-1.67.42-4.14-1.31-4.94-1.53-.71-3.64-.15-5.49-.15ZM141.18,184.55c0,1.48.04,2.97-.01,4.45-.04.96.27,1.38,1.27,1.24,1.54-.2,3.09-.34,4.62-.54,6.72-.87,13.18-2.62,19.35-5.44,1.46-.67,1.82-1.32.83-2.82-1.44-2.18-3.33-3.99-4.79-6.13-.91-1.34-1.85-1.44-3.18-.76-4.07,2.06-8.46,3.07-12.9,3.94-1.65.32-3.93-.05-4.85.91-1.06,1.12-.16,3.38-.34,5.14ZM59.46,10.32c-1.16.5-.61,1.34-.25,1.9,3.39,5.18,6.23,10.78,11.36,14.63,4.84,3.64,9.84,7.1,13.58,12.02,2.85,3.74,2.94,3.67,7.24,1.8.14-.06.28-.11.41-.16,1.16-.43,1.44-1.09.7-2.18-2.54-3.75-5.14-7.46-8.57-10.44-2.94-2.55-6.07-4.88-9.17-7.23-4.07-3.08-7.99-6.37-12.41-8.96-.89-.52-1.86-.9-2.89-1.38ZM184.55,155.87c.4-1.37-.38-1.28-1.01-1.28-2.66-.01-5.33.02-7.99-.02-.84-.01-1.31.14-1.53,1.1-1.31,5.78-4.1,10.73-8.47,14.76-.64.59-.91,1.04-.14,1.79,2.07,2.03,3.65,4.46,5.22,6.87.9,1.38,1.55,1.29,2.71.23,7-6.4,10.78-14.28,11.21-23.46ZM139.68,199.88c.07,0,.14,0,.2,0,0,1.03.09,2.08-.02,3.1-.17,1.63.51,1.99,2.04,1.85,8.04-.74,15.87-2.35,23.41-5.29,5.27-2.05,5.3-2.04,1.96-6.71-1.7-2.38-3.25-2.57-5.44-1.81-6.31,2.19-12.85,3.29-19.51,3.62-1.87.09-3.17.48-2.67,2.8.16.78.03,1.62.03,2.44ZM93.07,163.54c-.29.11-.59.18-.84.33-2.51,1.55-4.99,3.15-7.53,4.67-1.19.71-.95,1.3-.2,2.21,4.91,5.93,11.05,10.17,17.99,13.36,1.18.54,1.78.17,2.28-.85,1.27-2.59,2.53-5.19,3.85-7.75.63-1.23.25-1.8-.96-2.28-5.13-2.05-9.63-5.08-13.56-8.97-.3-.3-.53-.74-1.04-.71ZM150.08,75.81c2.61,2.18,6.09,3.03,8.71,2.07,4.39-1.61,8.88-2.79,13.55-3.08,8.5-.52,16.46,1.35,23.84,5.65.67.39,1.42.65,2.39,1.1-.47-2.03-1.41-3.34-2.9-4.3-1.43-.93-2.89-1.81-4.24-2.85-1.73-1.32-1.54-2.39.46-3.16.48-.19,1-.28,1.48-.47,4.02-1.55,5.73-4.89,7.18-9.24-1.29.92-2.15,1.38-2.83,2.04-4.32,4.19-9.73,5.68-15.49,6.4-5.61.71-11.26.09-16.87.79-5.38.67-10.34,2.34-15.29,5.05ZM52.37,151.17c.88-.37,1.98.26,2.17-.61.19-.85,0-1.94-.86-2.6-1.11-.86-2.29-1.64-3.36-2.55-6.18-5.27-13.26-6.82-21.14-5.2-4.71.97-7.89,4.02-8.54,8.69-.21,1.52-1.4,3.62.01,4.58,1.17.8,2.79-.8,4.09-1.56,6.4-3.76,13.19-4.51,20.32-2.7,2.5.64,4.99,1.33,7.31,1.95ZM108.37,74.03c3.15.05,6.48-.73,8.39-4.24,1.9-3.48,2.28-7.31,0-10.56-2.41-3.44-5.77-5.98-10.46-5.38-2.32.3-4.35,1.38-6.25,2.68-3.06,2.09-4.13,5.21-3.68,8.69.71,5.5,5.23,8.83,11.98,8.81ZM99.33,38.27c1.35-.33,2.98-.83,4.65-1.1,1.56-.25,1.86-.69.93-2.1-3.47-5.25-6.79-10.59-11.07-15.26-4.16-4.54-8.62-8.75-13.57-12.43-.5-.37-1.11-1.02-1.76-.62-.83.5-.35,1.38-.13,2.02,1.36,3.93,3.1,7.73,5.52,11.08,4.38,6.04,9.74,11.34,13.62,17.78.37.61.85.76,1.8.63ZM135.35,201.84c-.12-1.81-.32-3.8-.38-5.79-.03-1.16-.6-1.29-1.56-1.26-6.7.2-13.27-.8-19.72-2.52-1.58-.42-1.97.14-2.21,1.39-.4,2.09-.65,4.23-1.24,6.27-.51,1.77.12,2.35,1.74,2.66,6.67,1.26,13.36,2.3,20.15,2.57,3.31.13,3.3.21,3.21-3.31ZM89.38,181.77c-.22.18-.4.32-.57.46-2.06,1.65-4.1,3.32-6.17,4.94-1.27.99-1.24,1.66.12,2.67,6.56,4.86,13.85,8.18,21.55,10.74.9.3,1.14.15,1.32-.74.41-2.1.93-4.18,1.41-6.27.68-2.94.68-2.95-2.09-3.66-5.32-1.35-9.82-4.3-14.31-7.27-.43-.28-.85-.58-1.26-.86ZM86.35,120.3c-1.1.27-1.49.94-1.99,1.46-2.87,2.94-6.27,2.65-8.53-.73-.79-1.18-1.42-2.41-1.67-3.83-.12-.64-.61-1.6-1.26-.71-1.21,1.65-3.1,3.07-3.27,5.18-.38,4.56-.53,9.15.28,13.71.17.96.6,1.4,1.62,1.38,3.48-.05,6.96-.04,10.44-.03.84,0,1.26-.18,1.47-1.16.9-4.25,1.96-8.46,2.89-12.69.17-.76.02-1.59.02-2.57ZM85.9,179.46c.06-.98-.41-1.17-.73-1.43-4.56-3.79-8.01-8.48-10.97-13.56-.72-1.23-1.61-1.37-2.78-.83-1.94.9-3.87,1.86-5.84,2.69-1.22.52-1,1.24-.54,2.12,3.16,5.95,6.77,11.59,11.49,16.46.84.87,1.42,1.05,2.37.21,2.06-1.8,4.2-3.52,6.31-5.25.28-.23.64-.38.68-.41ZM23.11,169.68c2.85-.5,5.19-1.65,7.32-3.09,7.31-4.99,15.59-6.53,24.18-7.14.7-.05,1.81.49,1.93-.82.11-1.19-.53-1.96-1.69-2.26-4.29-1.13-8.56-2.36-12.89-3.36-3.23-.74-6.47-.33-9.59.74-.56.19-1.76.55-.68,1.49,1.67,1.45,1.03,2.49-.36,3.57-.94.72-1.85,1.49-2.74,2.27-2.57,2.28-4.93,4.71-5.47,8.61ZM26.45,185.65c2.08-1.1,4.26-1.89,6.2-3.3,5.03-3.66,9.74-7.77,15.3-10.66,3.03-1.57,6.28-2.58,9.39-3.94.87-.38,1.85-.69,1.45-2.04-.33-1.11-.98-1.46-2.12-1.39-1.4.09-2.82-.03-4.22-.05-5.51-.08-10.7,1.29-15.65,3.63-.57.27-1.6.41-.57,1.44,1.67,1.68,1.64,2.17-.29,3.55-3.72,2.67-6.94,5.79-9.06,9.91-.44.85-.96,1.69-.42,2.84ZM37.61,196.96c-.01-.08-.03.25.09.5.4.8-.43,2.2.87,2.44,1.2.22,1.4-1.13,1.86-1.9,1.93-3.25,3.86-6.49,6.32-9.37,4.3-5.01,8.91-9.7,14.15-13.75.79-.61,1.46-1.26.89-2.42-.49-1.01-1.24-1.23-2.19-.86-6.24,2.42-12.62,4.59-17.82,9.07-.86.74-1.76,1.33-.58,2.64.79.87.1,1.84-.49,2.61-2.4,3.16-2.96,6.86-3.12,11.04ZM61.27,137.58c-.37,0-.74,0-1.11,0-2.98-.03-2.89-.04-2.46,2.9.45,3.05.94,6.1,1.55,9.12.82,4.06,1.71,8.1,3.14,11.99.2.54-.02,1.93,1.45,1.17,2.16-1.11,4.36-2.16,6.57-3.16.82-.37.92-.73.5-1.5-2.85-5.25-4.06-11.02-5.19-16.81-.72-3.67-.74-3.66-4.45-3.71ZM190.54,179.05c.09-.61-.42-.72-.77-.93-1.46-.88-2.98-1.65-4.37-2.62-1.17-.82-1.88-1.03-2.73.46-.91,1.6-2.23,2.94-3.62,4.19-2.84,2.55-5.83,4.9-9.08,6.9-1.15.7-1.36,1.27-.4,2.38,1.31,1.5,2.44,3.16,3.59,4.79.56.79,1.08,1.08,2,.45,5.9-4.02,11.21-8.62,14.89-14.86.15-.25.32-.5.48-.75ZM152.43,119.6c-.64-2.12-1.36-4.22-1.9-6.37-.36-1.44-1.01-1.88-2.46-1.47-6.29,1.78-11.62,5.02-15.87,10.04-.79.93-.45,1.34.37,1.86,1.88,1.18,3.74,2.39,5.58,3.63.59.4,1.12.79,1.74.12,3.17-3.45,7.25-5.27,11.63-6.55.67-.2,1.06-.5.92-1.26ZM92.16,64.14c-.93.94-1.38,1.97-1.72,3.1-.61,2.06-1.21,4.12-1.96,6.13-1.51,4.01-6.01,6.72-11.02,6.82-.55.01-1.42-.59-1.64.48-.42,2.03,2.02,5.62,4.17,6.22,5.78,1.59,12.97-3.72,14.18-9.83.93-4.7-2.28-8.43-2-12.91ZM128.55,144.69c.64-.25,2.21.69,2.39-1.05.27-2.63,1.66-4.87,2.3-7.35.49-1.88,2.69-3.65,1.68-5.39-.95-1.65-3.17-2.57-4.83-3.81-.12-.09-.24-.17-.37-.25-1.18-.83-1.91-.5-2.65.74-2.01,3.4-3.47,6.99-4.36,10.83-1.12,4.8-.28,5.98,4.64,6.29.3.02.59,0,1.2,0ZM161.35,110.46c-1.85,0-3.71-.02-5.56,0-1.24.02-1.66.54-1.2,1.81.69,1.87,1.31,3.78,1.8,5.71.33,1.31.99,1.53,2.23,1.43,3.63-.29,7.26-.23,10.77.91.92.3,1.38,0,1.81-.72,1.28-2.11,1.99-4.46,2.87-6.73.39-1.02-.37-1.01-1.04-1.19-3.83-.99-7.72-1.42-11.67-1.23ZM185.38,131.37c1.65-.69,3.42-1.42,5.18-2.18,2.27-.98,2.42-1.38.96-3.33-3.34-4.46-7.08-8.5-12.15-11.09-.86-.44-1.21-.23-1.52.5-.62,1.42-1.27,2.83-1.81,4.28-1.25,3.33-1.12,3.19,1.66,5.24,2,1.47,4.6,2.37,5.57,5.09.25.7.87,1.59,2.12,1.51ZM193.26,151.31c.96,0,1.93-.03,2.89,0,.84.04,1.2-.28,1.2-1.15,0-5.75-1.02-11.33-2.87-16.77-.26-.77-.55-1.08-1.59-.77-1.94.58-3.66,1.6-5.53,2.27-1.15.41-1.17.97-.74,2,1.4,3.36,2.32,6.87,2.7,10.48.38,3.61.28,3.62,3.95,3.93ZM197.29,156.75c.16-.88-.06-1.38-1.12-1.34-1.85.07-3.7.06-5.55,0-.92-.03-1.26.23-1.36,1.21-.3,3.01-1.02,5.94-1.7,8.88-.43,1.86-2.45,3.78-1.28,5.45,1.03,1.49,3.29,2.12,5.01,3.13.13.07.27.13.39.22.71.49,1.23.35,1.56-.46,2.29-5.47,3.65-11.17,4.06-17.08ZM97,113.45c.08-1.48.04-2.98.26-4.44.4-2.78-1.94-1.76-3.11-2.32-1.14-.55-1.86-.21-2.21,1.16-1.61,6.18-1.87,12.39.54,18.34.94,2.32,1.8,5.07,4.37,6.43.56.3,1.19.88,1.82.3.56-.51.36-1.28.14-1.9-2.06-5.71-1.93-11.64-1.8-17.57ZM62.67,109.71c-1.07.53-.75,2.22-1.82,2.37-1.6.22-1.76,1.36-2.07,2.48-1.43,5.11-1.42,10.36-1.37,15.61.03,2.97.07,2.97,3.11,3.04,4.2.1,4.25.1,4.16-4.07-.07-3.25.6-6.58-.2-9.74-.8-3.16-.89-6.41-1.81-9.68ZM130.96,43.88s-.03,0-.04,0c0-1.18,0-2.37,0-3.55,0-4.41.01-4.29-4.46-3.5-1.6.28-1.9.88-1.8,2.29.13,1.77.14,3.55.1,5.33-.06,3.06-1.3,4.48-4.28,4.95-1.39.22-2.75.47-3.96,1.27-.36.24-1.03.44-.53.88,1.11,1.01,2,2.59,3.81,2.33,2.99-.42,5.96-1.05,8.95-1.48,1.68-.24,2.21-1.24,2.21-2.74,0-1.92,0-3.85,0-5.77ZM66.67,107.94c.31,1.82.58,3.64.95,5.44.14.69.13,1.72.87,1.88.84.19,1.03-.89,1.48-1.44,3.12-3.87,5.11-8.6,8.96-11.91,1.35-1.16,1.44-2.24.2-3.5-.36-.36-.66-.8-.93-1.24-.71-1.13-1.48-1.28-2.52-.36-2.99,2.64-5.72,5.53-8.31,8.57-.64.75-.59,1.64-.69,2.56ZM111,127.06c-.59-1.59-.97-2.76-1.45-3.9-1.83-4.3-2.67-8.72-1.74-13.37.22-1.09-.15-1.53-1.37-1.62-4.29-.31-4.28-.37-4.96,3.88-.06.37-.21.73-.21,1.09-.05,3.39-.44,6.93,2.02,9.73,1.89,2.15,4.5,3.26,7.72,4.19ZM84.2,102.58c-.64.03-.83.46-1.07.81-.54.79-.94,1.73-1.63,2.36-3.63,3.36-4.15,7.48-3.01,12,.22.89.43,2.08,1.53,2.26.94.15,1.53-.77,2.09-1.44,2.69-3.25,4.32-7.04,5.5-11.03.24-.81,1.06-1.92.35-2.48-1.18-.93-2.67-1.5-3.77-2.47Z" fill="#41260f" stroke-width="0"/><path d="M112.45,78.24c1.23-.49,2.54-.85,3.67-1.5,5.29-3.06,6.64-6.86,6.18-13.83-.1-1.54-1.26-3.27-.54-4.51.73-1.25,2.72-.47,4.15-.76,8.8-1.75,10.95-4.67,9.82-13.56-.18-1.39-.16-2.81-.25-4.21-.15-2.46-.21-4.74,2.98-5.57.89-.23,1.61-1.48,2.23-2.37,2.68-3.84,6.53-5.77,10.86-7.19,4.79-1.57,9.77-1.74,14.5-.93,4.44.76,8.33,3.2,9.65,8.33,1.14,4.42,1.7,8.86,1.57,13.4-.03.99-.09,1.84-1.5,1.22-7.33-3.21-14.32-1.26-21.3,1.35-7.66,2.87-13.15,8.38-18.16,14.54-3.31,4.07-6.81,7.95-11.05,11.09-.41.31-.77.69-1.16,1.04-.73.67-1.46,1.39-1.14,2.47.36,1.24,1.47.69,2.27.75,6.56.48,13.18.3,19.7,1.29,3.38.52,6.5,2.02,9.67,3.22,5.33,2,10.72,3.8,16.6,5.41-3.63,2.45-7.09,4.36-11.31,4.41.06-1.05-.83-1.21-1.48-1.32-2.39-.41-4.43-1.58-6.52-2.68-4.01-2.11-8.12-3.91-12.76-4.05-5.54-.17-11.07-.37-16.61-.53-4.31-.12-7.38-2.48-10.08-5.51ZM158.69,34.71c.89,0,1.78-.04,2.67.01.61.03,1.24.3,1.45.88.24.67-.56.72-.9,1.04-.81.75-1.68,1.46-2.4,2.3-.98,1.14-.63,2.21.71,2.46,2.68.49,6.89-2.57,7.33-5.33.41-2.53-1.94-5.34-4.94-5.86-4.17-.72-8.21.02-11.79,2.05-2.41,1.36-5.04,3.07-4.73,6.66.09,1.04.26,1.99,1.34,2.3,1.15.33,2.01-.2,2.51-1.28,1.73-3.73,4.73-5.33,8.75-5.22Z" fill="#bd5d1b" stroke-width="0"/><path d="M112.45,78.24c2.71,3.03,5.77,5.39,10.08,5.51,5.54.16,11.07.36,16.61.53,4.64.14,8.75,1.94,12.76,4.05,2.09,1.1,4.13,2.28,6.52,2.68.65.11,1.54.27,1.48,1.32-4.53.65-9.12.32-13.5-.47-10.63-1.91-20.17.52-28.89,6.37-8.25,5.53-16.94,6.28-26.05,3.14-4.19-1.44-7.43-4.51-10.2-7.95-.78-.97-1.37-2.18.91-2.16,8.54.07,13.98-5.52,16.58-12.99.44-1.26.64-1.51,1.88-.95,3.81,1.71,7.84,1.11,11.82.92Z" fill="#519b64" stroke-width="0"/><path d="M179.43,150.15c-1.63,0-3.57.54-4.81-.15-1.23-.7-.44-2.85-.79-4.35-1.05-4.47-3-8.23-6.71-11.17-5.45-4.32-18.83-2.82-23.23,6.59-1.96,4.19-3.25,8.5-3.03,13.18.06,1.25.05,2.55-.19,3.77-.4,1.97-1.65,2.34-3.2,1.1-1.32-1.06-2.33-2.33-2.48-4.06-.6-7.11.44-13.94,4.17-20.11,3.97-6.56,10.18-9.62,17.58-10.75,6.05-.92,11.81-.73,16.98,3.1,6.69,4.95,9.98,11.75,10.75,19.87.29,3.01.19,3.02-2.82,3.03-.74,0-1.48,0-2.23,0,0-.02,0-.03,0-.05Z" fill="#519b64" stroke-width="0"/><path d="M7.54,58.75c2.36-.78,4.7-1.64,7.08-2.33,7.98-2.31,16.08-4.07,24.43-4.19,4.77-.07,9.47.17,14.23,1.47,5.18,1.41,10.44,2.54,15.44,4.54,2.48.99,2.68,1.63,1.65,4.93-.6,1.94-2.02,1.19-3.43,1.06-2.72-.25-5.47-.15-8.21-.16-5.04-.01-10.09.03-15.13,0-8-.05-16.01-.22-23.89-1.76-4.08-.8-8.09-1.99-12.13-3-.01-.19-.03-.37-.04-.56Z" fill="#519b64" stroke-width="0"/><path d="M74.5,70.35c-.03-5.22,1.49-10,3.94-14.58,3.6-6.72,9.93-9.54,16.65-11.66,7.32-2.31,14.83-3.9,22.38-5.3,2.32-.43,2.79-.07,2.77,2.28-.05,3.99.83,3.5-3.52,4.79-5.1,1.5-10.28,2.7-15.41,4.09-9.14,2.48-14.27,8.57-15.78,17.82-.25,1.54-.77,2.99-1.28,4.46-.99,2.88-3.49,3.68-5.98,4.28-1.85.44-3.45-.92-3.73-2.84-.15-1.09-.03-2.22-.03-3.33Z" fill="#f39a1e" stroke-width="0"/><path d="M19.57,111.74c3.81-6.5,8.39-12.39,13.91-17.52,9.79-9.11,21.52-14.19,34.57-16.56,1.55-.28,1.94.17,2.21,1.47.77,3.7.89,3.86-2.32,5.53-11.84,6.18-22.89,13.65-34.16,20.75-3.56,2.24-7.22,4.37-11.23,5.78-.9.32-1.85.49-2.78.73-.06-.06-.12-.13-.18-.19Z" fill="#519b64" stroke-width="0"/><path d="M12.2,34.91c8.06-1.17,15.45-1.42,23-.51,14.67,1.77,27.33,8.31,39.76,15.61,1.23.72,1.16,1.32.42,2.42-2.04,3.01-1.99,3.07-5.26,1.88-12.04-4.41-24.47-7.5-36.74-11.13-6.73-1.99-13.39-4.23-19.73-7.31-.32-.16-.6-.4-1.45-.97Z" fill="#519b64" stroke-width="0"/><path d="M57.12,68.6c3.34-.32,6.94.44,10.58.49.95.01,2.38-.22,2.33,1.59-.04,1.46-.54,2.23-2.12,2.52-8.64,1.55-16.62,5.29-25.01,7.66-6.97,1.97-13.92,4.04-21.07,5.27-2.61.45-5.26.8-7.94.69-.55-.02-1.07-.13-1.25-.71-.17-.53.32-.79.64-1.06,8.33-6.8,17.27-12.5,27.95-14.86,5.12-1.13,10.31-1.81,15.89-1.59Z" fill="#519b64" stroke-width="0"/><path d="M33.53,13.45c1.37.93,2.95.58,4.32,1,7.77,2.36,14.97,5.98,21.83,10.25,5.59,3.48,10.86,7.46,15.91,11.71,2.29,1.93,4.03,4.33,5.9,6.63.53.66,1.85,1.52.87,2.35-1.02.87-2.12,2.21-3.85,1.67-.42-.13-.85-.3-1.21-.54-6.33-4.14-13.16-7.39-19.67-11.2-7.81-4.57-14.24-10.85-20.55-17.22-1.36-1.38-3.04-2.58-3.53-4.65Z" fill="#519b64" stroke-width="0"/><path d="M136.72,184.21c.03,1.19-.18,2.87-.33,4.56-.13,1.42-.62,1.95-2.05,1.88-8.05-.35-15.94-1.63-23.68-3.84-1.39-.4-2.36-.86-1.28-2.7,1.34-2.28,2.35-4.76,3.42-7.19.51-1.16,1.3-1.31,2.32-.94,6.41,2.31,13.09,2.88,19.82,3.04,1.33.03,1.91.41,1.79,1.78-.08.96-.02,1.92-.02,3.4Z" fill="#519b64" stroke-width="0"/><path d="M43.4,119.37c-.22-1.44.15-2.51.57-3.51,2.57-6.09,5.69-11.87,9.77-17.09.54-.69,1.21-1.33,1.93-1.82,5.01-3.43,10.19-6.59,15.88-8.8.67-.26,1.57-1.13,2.03.12.44,1.21,2.07,2.45.71,3.78-3.31,3.25-6.26,6.89-10.4,9.26-1.99,1.14-3.18,3.26-4.72,4.94-3.52,3.84-7.52,7.13-11.46,10.49-1.23,1.05-2.59,1.93-4.32,2.63Z" fill="#519b64" stroke-width="0"/><path d="M77.43,141.04c1.85,0,3.96-.56,5.49.15,1.73.8.76,3.27,1.31,4.94,1.44,4.36,2.87,8.72,5.55,12.51.8,1.13.85,1.91-.55,2.61-2.57,1.3-5.13,2.64-7.59,4.13-.95.58-1.19.24-1.67-.46-4.62-6.68-7.98-13.86-9.01-22.02-.18-1.45.2-1.86,1.57-1.8,1.63.08,3.26.02,4.89.02,0-.03,0-.05,0-.08Z" fill="#519b64" stroke-width="0"/><path d="M141.18,184.55c.18-1.76-.72-4.02.34-5.14.91-.97,3.19-.59,4.85-.91,4.43-.86,8.83-1.88,12.9-3.94,1.34-.68,2.27-.58,3.18.76,1.46,2.14,3.35,3.94,4.79,6.13.99,1.5.63,2.15-.83,2.82-6.17,2.82-12.63,4.58-19.35,5.44-1.54.2-3.09.33-4.62.54-1,.13-1.3-.29-1.27-1.24.06-1.48.01-2.97.01-4.45Z" fill="#519b64" stroke-width="0"/><path d="M59.46,10.32c1.03.49,2,.86,2.89,1.38,4.42,2.58,8.35,5.88,12.41,8.96,3.1,2.35,6.23,4.68,9.17,7.23,3.43,2.98,6.04,6.69,8.57,10.44.74,1.09.46,1.75-.7,2.18-.14.05-.28.1-.41.16-4.3,1.87-4.39,1.94-7.24-1.8-3.74-4.92-8.74-8.38-13.58-12.02-5.13-3.85-7.97-9.45-11.36-14.63-.36-.56-.91-1.4.25-1.9Z" fill="#519b64" stroke-width="0"/><path d="M184.55,155.87c-.43,9.18-4.22,17.06-11.21,23.46-1.16,1.06-1.81,1.15-2.71-.23-1.58-2.41-3.15-4.84-5.22-6.87-.77-.75-.5-1.21.14-1.79,4.37-4.03,7.16-8.98,8.47-14.76.22-.97.69-1.11,1.53-1.1,2.66.04,5.33,0,7.99.02.63,0,1.41-.1,1.01,1.28Z" fill="#519b64" stroke-width="0"/><path d="M139.68,199.88c0-.81.14-1.66-.03-2.44-.49-2.32.81-2.71,2.67-2.8,6.66-.33,13.2-1.44,19.51-3.62,2.19-.76,3.73-.57,5.44,1.81,3.34,4.67,3.31,4.66-1.96,6.71-7.54,2.94-15.37,4.55-23.41,5.29-1.53.14-2.21-.22-2.04-1.85.11-1.02.02-2.07.02-3.1-.07,0-.14,0-.2,0Z" fill="#f39a1e" stroke-width="0"/><path d="M93.07,163.54c.51-.02.74.42,1.04.71,3.92,3.89,8.42,6.92,13.56,8.97,1.21.48,1.59,1.06.96,2.28-1.32,2.56-2.58,5.16-3.85,7.75-.5,1.03-1.1,1.4-2.28.85-6.95-3.19-13.08-7.43-17.99-13.36-.75-.91-.99-1.5.2-2.21,2.53-1.51,5.02-3.11,7.53-4.67.25-.15.54-.22.84-.33Z" fill="#519b64" stroke-width="0"/><path d="M150.08,75.81c4.95-2.7,9.92-4.37,15.29-5.05,5.61-.7,11.26-.09,16.87-.79,5.76-.73,11.17-2.21,15.49-6.4.68-.66,1.54-1.12,2.83-2.04-1.45,4.35-3.16,7.69-7.18,9.24-.48.19-1,.28-1.48.47-2,.77-2.19,1.83-.46,3.16,1.35,1.04,2.81,1.92,4.24,2.85,1.49.96,2.43,2.27,2.9,4.3-.97-.44-1.72-.7-2.39-1.1-7.38-4.3-15.34-6.17-23.84-5.65-4.67.29-9.16,1.47-13.55,3.08-2.62.96-6.1.1-8.71-2.07Z" fill="#bd5d1b" stroke-width="0"/><path d="M52.37,151.17c-2.32-.62-4.8-1.32-7.31-1.95-7.13-1.81-13.91-1.06-20.32,2.7-1.3.76-2.92,2.36-4.09,1.56-1.41-.96-.22-3.06-.01-4.58.65-4.67,3.83-7.72,8.54-8.69,7.88-1.62,14.96-.07,21.14,5.2,1.07.91,2.24,1.69,3.36,2.55.87.67,1.05,1.75.86,2.6-.19.86-1.29.23-2.17.61Z" fill="#519b64" stroke-width="0"/><path d="M108.37,74.03c-6.76.02-11.27-3.31-11.98-8.81-.45-3.47.61-6.59,3.68-8.69,1.9-1.3,3.93-2.39,6.25-2.68,4.69-.6,8.05,1.95,10.46,5.38,2.27,3.25,1.89,7.07,0,10.56-1.91,3.51-5.24,4.28-8.39,4.24ZM101.98,63.6c-.08,2.87,2.43,5.22,5.67,5.32,2.52.08,4.91-2.02,5.01-4.39.15-3.68-1.76-5.76-5.38-5.83-3.22-.07-5.21,1.78-5.29,4.91Z" fill="#bd5d1b" stroke-width="0"/><path d="M99.33,38.27c-.95.12-1.43-.02-1.8-.63-3.87-6.44-9.24-11.74-13.62-17.78-2.42-3.34-4.16-7.15-5.52-11.08-.22-.64-.7-1.52.13-2.02.65-.4,1.26.25,1.76.62,4.95,3.68,9.41,7.88,13.57,12.43,4.27,4.67,7.59,10.02,11.07,15.26.93,1.4.62,1.84-.93,2.1-1.67.27-3.31.77-4.65,1.1Z" fill="#519b64" stroke-width="0"/><path d="M135.35,201.84c.09,3.52.1,3.44-3.21,3.31-6.8-.27-13.49-1.31-20.15-2.57-1.62-.31-2.25-.89-1.74-2.66.59-2.04.84-4.18,1.24-6.27.24-1.25.62-1.81,2.21-1.39,6.45,1.72,13.01,2.71,19.72,2.52.96-.03,1.53.11,1.56,1.26.05,1.99.25,3.98.38,5.79Z" fill="#f39a1e" stroke-width="0"/><path d="M89.38,181.77c.42.29.84.58,1.26.86,4.49,2.97,8.99,5.92,14.31,7.27,2.77.7,2.76.72,2.09,3.66-.48,2.09-1,4.17-1.41,6.27-.18.89-.42,1.04-1.32.74-7.7-2.56-14.99-5.88-21.55-10.74-1.36-1.01-1.39-1.68-.12-2.67,2.08-1.62,4.12-3.29,6.17-4.94.17-.14.35-.28.57-.46Z" fill="#f39a1e" stroke-width="0"/><path d="M86.35,120.3c0,.98.14,1.81-.02,2.57-.94,4.24-2,8.45-2.89,12.69-.21.98-.63,1.17-1.47,1.16-3.48,0-6.96-.02-10.44.03-1.03.01-1.45-.43-1.62-1.38-.81-4.56-.66-9.15-.28-13.71.18-2.11,2.06-3.54,3.27-5.18.65-.89,1.15.07,1.26.71.26,1.42.88,2.65,1.67,3.83,2.26,3.38,5.66,3.67,8.53.73.5-.52.89-1.18,1.99-1.46Z" fill="#519b64" stroke-width="0"/><path d="M85.9,179.46s-.39.17-.68.41c-2.12,1.74-4.25,3.45-6.31,5.25-.96.84-1.53.65-2.37-.21-4.73-4.87-8.33-10.51-11.49-16.46-.47-.88-.69-1.6.54-2.12,1.97-.84,3.89-1.79,5.84-2.69,1.17-.54,2.06-.4,2.78.83,2.96,5.08,6.42,9.77,10.97,13.56.32.26.79.45.73,1.43Z" fill="#519b64" stroke-width="0"/><path d="M23.11,169.68c.54-3.9,2.9-6.33,5.47-8.61.89-.79,1.8-1.55,2.74-2.27,1.39-1.08,2.03-2.12.36-3.57-1.08-.94.12-1.29.68-1.49,3.12-1.07,6.36-1.48,9.59-.74,4.33.99,8.6,2.23,12.89,3.36,1.17.31,1.8,1.07,1.69,2.26-.12,1.32-1.23.77-1.93.82-8.59.61-16.87,2.15-24.18,7.14-2.12,1.45-4.46,2.59-7.32,3.09Z" fill="#519b64" stroke-width="0"/><path d="M26.45,185.65c-.55-1.15-.02-1.99.42-2.84,2.12-4.13,5.34-7.24,9.06-9.91,1.93-1.38,1.96-1.87.29-3.55-1.03-1.03,0-1.17.57-1.44,4.95-2.34,10.13-3.71,15.65-3.63,1.41.02,2.82.14,4.22.05,1.14-.07,1.79.27,2.12,1.39.4,1.35-.58,1.66-1.45,2.04-3.11,1.36-6.36,2.37-9.39,3.94-5.57,2.89-10.28,7-15.3,10.66-1.94,1.41-4.12,2.2-6.2,3.3Z" fill="#519b64" stroke-width="0"/><path d="M37.61,196.96c.16-4.18.72-7.88,3.12-11.04.58-.77,1.27-1.74.49-2.61-1.18-1.3-.28-1.89.58-2.64,5.2-4.48,11.58-6.65,17.82-9.07.95-.37,1.7-.14,2.19.86.57,1.17-.1,1.81-.89,2.42-5.24,4.04-9.86,8.73-14.15,13.75-2.47,2.88-4.4,6.12-6.32,9.37-.46.77-.66,2.12-1.86,1.9-1.3-.24-.47-1.64-.87-2.44-.13-.25-.11-.58-.09-.5Z" fill="#519b64" stroke-width="0"/><path d="M61.27,137.58c3.71.05,3.73.04,4.45,3.71,1.13,5.79,2.34,11.55,5.19,16.81.42.77.31,1.13-.5,1.5-2.21,1-4.41,2.04-6.57,3.16-1.47.76-1.25-.63-1.45-1.17-1.43-3.89-2.31-7.93-3.14-11.99-.61-3.03-1.1-6.07-1.55-9.12-.43-2.94-.52-2.93,2.46-2.9.37,0,.74,0,1.11,0Z" fill="#519b64" stroke-width="0"/><path d="M190.54,179.05c-.16.25-.33.49-.48.75-3.68,6.24-9,10.84-14.89,14.86-.92.63-1.43.34-2-.45-1.16-1.63-2.29-3.29-3.59-4.79-.96-1.11-.75-1.67.4-2.38,3.25-2,6.24-4.35,9.08-6.9,1.39-1.25,2.71-2.59,3.62-4.19.85-1.49,1.56-1.28,2.73-.46,1.38.98,2.91,1.75,4.37,2.62.35.21.86.33.77.93Z" fill="#f39a1e" stroke-width="0"/><path d="M152.43,119.6c.13.76-.25,1.06-.92,1.26-4.38,1.29-8.46,3.11-11.63,6.55-.62.68-1.15.28-1.74-.12-1.84-1.24-3.7-2.45-5.58-3.63-.82-.52-1.16-.92-.37-1.86,4.25-5.02,9.58-8.26,15.87-10.04,1.46-.41,2.1.03,2.46,1.47.54,2.15,1.26,4.25,1.9,6.37Z" fill="#519b64" stroke-width="0"/><path d="M92.16,64.14c-.27,4.48,2.93,8.21,2,12.91-1.2,6.11-8.4,11.42-14.18,9.83-2.15-.59-4.59-4.19-4.17-6.22.22-1.07,1.09-.47,1.64-.48,5.01-.09,9.51-2.8,11.02-6.82.75-2,1.36-4.07,1.96-6.13.33-1.13.78-2.17,1.72-3.1Z" fill="#519b64" stroke-width="0"/><path d="M128.55,144.69c-.61,0-.9.02-1.2,0-4.92-.31-5.76-1.49-4.64-6.29.9-3.84,2.35-7.43,4.36-10.83.73-1.24,1.46-1.57,2.65-.74.12.09.25.17.37.25,1.66,1.24,3.88,2.16,4.83,3.81,1.01,1.74-1.2,3.51-1.68,5.39-.64,2.48-2.03,4.72-2.3,7.35-.18,1.75-1.75.8-2.39,1.05Z" fill="#519b64" stroke-width="0"/><path d="M161.35,110.46c3.95-.19,7.84.24,11.67,1.23.67.17,1.43.17,1.04,1.19-.88,2.28-1.59,4.63-2.87,6.73-.44.72-.89,1.02-1.81.72-3.51-1.13-7.14-1.2-10.77-.91-1.24.1-1.9-.12-2.23-1.43-.48-1.93-1.11-3.84-1.8-5.71-.47-1.28-.04-1.8,1.2-1.81,1.85-.03,3.71,0,5.56,0Z" fill="#519b64" stroke-width="0"/><path d="M185.38,131.37c-1.25.09-1.87-.81-2.12-1.51-.97-2.72-3.56-3.62-5.57-5.09-2.78-2.05-2.91-1.91-1.66-5.24.55-1.45,1.2-2.86,1.81-4.28.31-.73.67-.94,1.52-.5,5.07,2.59,8.81,6.63,12.15,11.09,1.47,1.96,1.31,2.35-.96,3.33-1.76.76-3.53,1.49-5.18,2.18Z" fill="#519b64" stroke-width="0"/><path d="M193.26,151.31c-3.66-.31-3.57-.32-3.95-3.93-.38-3.61-1.3-7.12-2.7-10.48-.43-1.03-.41-1.59.74-2,1.87-.67,3.6-1.69,5.53-2.27,1.05-.31,1.33,0,1.59.77,1.85,5.44,2.86,11.01,2.87,16.77,0,.87-.36,1.19-1.2,1.15-.96-.04-1.93,0-2.89,0Z" fill="#f39a1e" stroke-width="0"/><path d="M197.29,156.75c-.42,5.91-1.77,11.61-4.06,17.08-.34.8-.85.95-1.56.46-.12-.08-.26-.14-.39-.22-1.72-1.01-3.98-1.64-5.01-3.13-1.16-1.67.86-3.58,1.28-5.45.68-2.94,1.41-5.87,1.7-8.88.1-.97.44-1.24,1.36-1.21,1.85.06,3.7.07,5.55,0,1.06-.04,1.28.46,1.12,1.34Z" fill="#f39a1e" stroke-width="0"/><path d="M97,113.45c-.12,5.93-.26,11.86,1.8,17.57.22.62.41,1.39-.14,1.9-.63.57-1.26,0-1.82-.3-2.57-1.36-3.43-4.11-4.37-6.43-2.41-5.95-2.15-12.16-.54-18.34.36-1.37,1.07-1.71,2.21-1.16,1.17.56,3.51-.46,3.11,2.32-.21,1.46-.18,2.96-.26,4.44Z" fill="#519b64" stroke-width="0"/><path d="M62.67,109.71c.92,3.26,1.01,6.52,1.81,9.68.8,3.16.12,6.49.2,9.74.09,4.18.04,4.18-4.16,4.07-3.05-.07-3.09-.07-3.11-3.04-.04-5.24-.06-10.49,1.37-15.61.31-1.11.47-2.26,2.07-2.48,1.08-.15.75-1.84,1.82-2.37Z" fill="#519b64" stroke-width="0"/><path d="M130.96,43.88c0,1.92,0,3.85,0,5.77,0,1.51-.53,2.5-2.21,2.74-2.99.44-5.95,1.06-8.95,1.48-1.81.26-2.7-1.32-3.81-2.33-.49-.45.18-.65.53-.88,1.21-.8,2.57-1.05,3.96-1.27,2.98-.47,4.23-1.9,4.28-4.95.03-1.77.02-3.56-.1-5.33-.1-1.4.21-2.01,1.8-2.29,4.47-.79,4.45-.91,4.46,3.5,0,1.18,0,2.37,0,3.55.01,0,.03,0,.04,0Z" fill="#519b64" stroke-width="0"/><path d="M66.67,107.94c.1-.91.06-1.81.69-2.56,2.59-3.03,5.32-5.92,8.31-8.57,1.04-.92,1.81-.77,2.52.36.27.44.57.88.93,1.24,1.24,1.26,1.15,2.34-.2,3.5-3.85,3.31-5.84,8.04-8.96,11.91-.44.55-.64,1.62-1.48,1.44-.74-.16-.73-1.19-.87-1.88-.37-1.8-.64-3.63-.95-5.44Z" fill="#519b64" stroke-width="0"/><path d="M111,127.06c-3.22-.93-5.83-2.04-7.72-4.19-2.46-2.8-2.07-6.33-2.02-9.73,0-.36.15-.72.21-1.09.67-4.25.67-4.19,4.96-3.88,1.23.09,1.59.53,1.37,1.62-.93,4.66-.09,9.08,1.74,13.37.48,1.13.87,2.31,1.45,3.9Z" fill="#519b64" stroke-width="0"/><path d="M84.2,102.58c1.1.97,2.59,1.53,3.77,2.47.71.56-.11,1.67-.35,2.48-1.18,4-2.81,7.79-5.5,11.03-.56.67-1.15,1.59-2.09,1.44-1.1-.18-1.3-1.37-1.53-2.26-1.14-4.52-.62-8.63,3.01-12,.68-.63,1.08-1.57,1.63-2.36.24-.35.43-.79,1.07-.81Z" fill="#519b64" stroke-width="0"/><path d="M19.75,111.93l-.31.09c.04-.09.08-.18.13-.27.06.06.13.12.18.19Z" fill="#519b64" stroke-width="0"/><path d="M43.13,105.9c.15-.08.3-.15.45-.23-.02.18-.03.36-.05.54-.13-.1-.27-.21-.4-.31Z" fill="#fefefe" stroke-width="0"/><path d="M158.69,34.7c-4.02-.11-7.02,1.49-8.75,5.23-.5,1.08-1.37,1.61-2.51,1.28-1.08-.31-1.25-1.26-1.34-2.3-.31-3.58,2.31-5.29,4.73-6.66,3.58-2.02,7.62-2.77,11.79-2.05,3.01.52,5.35,3.33,4.94,5.86-.44,2.76-4.65,5.82-7.33,5.33-1.34-.24-1.69-1.32-.71-2.46.72-.84,1.59-1.55,2.4-2.3.35-.32,1.14-.36.9-1.04-.2-.58-.83-.85-1.45-.88-.89-.05-1.78-.01-2.67-.02Z" fill="#41260f" stroke-width="0"/><path d="M101.98,63.6c.08-3.13,2.08-4.98,5.29-4.91,3.62.08,5.54,2.15,5.38,5.83-.1,2.38-2.49,4.47-5.01,4.39-3.24-.1-5.75-2.45-5.67-5.32Z" fill="#41260f" stroke-width="0"/></g></svg>